<svg xmlns="http://www.w3.org/2000/svg"  viewBox="0 0 64 64" width="64px" height="64px"><path fill="#80a6dd" d="M50,58H14c-4.418,0-8-3.582-8-8V14c0-4.418,3.582-8,8-8h36c4.418,0,8,3.582,8,8v36	C58,54.418,54.418,58,50,58z"/><path fill="#6e91ce" d="M11,57h42c2.209,0,4-1.791,4-4l0,0c0-1.657-1.343-3-3-3H10c-1.657,0-3,1.343-3,3l0,0	C7,55.209,8.791,57,11,57z"/><path fill="#faefde" d="M50,45l-6.441-6.441C45.708,35.773,47,32.291,47,28.5C47,19.387,39.613,12,30.5,12S14,19.387,14,28.5	C14,37.613,21.387,45,30.5,45c3.322,0,6.409-0.991,8.999-2.68L42,45H50z M30.5,40C24.149,40,19,34.851,19,28.5	C19,22.149,24.149,17,30.5,17S42,22.149,42,28.5c0,2.409-0.743,4.643-2.01,6.491L35,30h-7l8.018,8.59C34.379,39.488,32.5,40,30.5,40	z"/><path fill="#8d6c9f" d="M47,53c-0.553,0-1-0.447-1-1v-2c0-0.553,0.447-1,1-1s1,0.447,1,1v2C48,52.553,47.553,53,47,53z"/><path fill="#8d6c9f" d="M42,53c-0.553,0-1-0.447-1-1v-2c0-0.553,0.447-1,1-1s1,0.447,1,1v2C43,52.553,42.553,53,42,53z"/><path fill="#8d6c9f" d="M37,53c-0.553,0-1-0.447-1-1v-2c0-0.553,0.447-1,1-1s1,0.447,1,1v2C38,52.553,37.553,53,37,53z"/><path fill="#8d6c9f" d="M32,53c-0.553,0-1-0.447-1-1v-2c0-0.553,0.447-1,1-1s1,0.447,1,1v2C33,52.553,32.553,53,32,53z"/><path fill="#8d6c9f" d="M27,53c-0.553,0-1-0.447-1-1v-2c0-0.553,0.447-1,1-1s1,0.447,1,1v2C28,52.553,27.553,53,27,53z"/><path fill="#8d6c9f" d="M22,53c-0.553,0-1-0.447-1-1v-2c0-0.553,0.447-1,1-1s1,0.447,1,1v2C23,52.553,22.553,53,22,53z"/><path fill="#8d6c9f" d="M17,53c-0.553,0-1-0.447-1-1v-2c0-0.553,0.447-1,1-1s1,0.447,1,1v2C18,52.553,17.553,53,17,53z"/><path fill="#8d6c9f" d="M12,53c-0.553,0-1-0.447-1-1v-2c0-0.553,0.447-1,1-1s1,0.447,1,1v2C13,52.553,12.553,53,12,53z"/><path fill="#8d6c9f" d="M52,53c-0.553,0-1-0.447-1-1v-2c0-0.553,0.447-1,1-1s1,0.447,1,1v2C53,52.553,52.553,53,52,53z"/><path fill="#8d6c9f" d="M51,58H13c-3.86,0-7-3.141-7-7V13c0-3.859,3.14-7,7-7h38c3.86,0,7,3.141,7,7v38 C58,54.859,54.86,58,51,58z M13,8c-2.757,0-5,2.243-5,5v38c0,2.757,2.243,5,5,5h38c2.757,0,5-2.243,5-5V13c0-2.757-2.243-5-5-5H13z"/><path fill="#8d6c9f" d="M50,46h-8c-0.277,0-0.542-0.115-0.73-0.317l-1.942-2.08C36.647,45.174,33.613,46,30.5,46 C20.851,46,13,38.149,13,28.5S20.851,11,30.5,11S48,18.851,48,28.5c0,3.591-1.078,7.016-3.128,9.958l5.835,5.835 c0.286,0.286,0.372,0.716,0.217,1.09C50.77,45.757,50.404,46,50,46z M42.435,44h5.151l-4.734-4.734 c-0.355-0.355-0.392-0.92-0.085-1.317C44.882,35.206,46,31.939,46,28.5C46,19.953,39.047,13,30.5,13S15,19.953,15,28.5 S21.953,44,30.5,44c3.006,0,5.928-0.87,8.451-2.518c0.407-0.264,0.947-0.201,1.277,0.155L42.435,44z M30.5,40 C24.159,40,19,34.841,19,28.5C19,22.159,24.159,17,30.5,17S42,22.159,42,28.5c0,2.252-0.656,4.437-1.896,6.319 c-0.165,0.25-0.435,0.414-0.733,0.444c-0.309,0.023-0.597-0.076-0.809-0.288L34.586,31h-4.284l5.736,6.146 c0.213,0.229,0.308,0.545,0.254,0.854s-0.248,0.574-0.526,0.718C34.116,39.568,32.345,40,30.5,40z M30.5,19 c-5.238,0-9.5,4.262-9.5,9.5s4.262,9.5,9.5,9.5c1.07,0,2.111-0.177,3.108-0.525l-6.34-6.792c-0.271-0.291-0.345-0.715-0.186-1.081 C27.241,29.236,27.602,29,28,29h7c0.266,0,0.52,0.105,0.707,0.293l3.343,3.343C39.674,31.351,40,29.942,40,28.5 C40,23.262,35.738,19,30.5,19z"/></svg>